# xmcd
#
# Track frame offsets:
# 150
# 14137
# 27552
# 42965
# 56220
# 69715
# 82752
# 96412
# 110080
# 122897
# 135070
# 149682
# 163915
# 177702
# 190580
# 202377
# 217420
# 232490
#
# Disc length: 3306 seconds
#
# Revision: 0
# Processed by: cddbd v1.4PL0 Copyright (c) Steve Scherf et al.
# Submitted via: Axialis_AX_CDPlayer 2.6
#
DISCID=2d0ce812
DTITLE=Big Bill Broonzy - Stayin Home With the Blues
DYEAR=1900
DGENRE=
TTITLE0=I Love My Whisky
TTITLE1=You've Been Mistreatin' Me
TTITLE2=Five Feet Seven
TTITLE3=I Wonder
TTITLE4=Keep Your Hands Off Her
TTITLE5=Hey Hey
TTITLE6=Stump Blues
TTITLE7=Get Back (Black Brown and White)
TTITLE8=Willie Mae
TTITLE9=Moppers Blues
TTITLE10=I Know She Will
TTITLE11=Hollerin the Blues
TTITLE12=Southbound Train
TTITLE13=Tomorrow
TTITLE14=You Changed
TTITLE15=John Henry
TTITLE16=Make My Getaway
TTITLE17=In the Evening
EXTD=
EXTT0=
EXTT1=
EXTT2=
EXTT3=
EXTT4=
EXTT5=
EXTT6=
EXTT7=
EXTT8=
EXTT9=
EXTT10=
EXTT11=
EXTT12=
EXTT13=
EXTT14=
EXTT15=
EXTT16=
EXTT17=
PLAYORDER=
